<?xml version="1.0" encoding="UTF-8" standalone="no"?>
<!DOCTYPE svg PUBLIC "-//W3C//DTD SVG 1.1//EN" "http://www.w3.org/Graphics/SVG/1.1/DTD/svg11.dtd">
<svg width="100%" height="100%" viewBox="0 0 2048 2048" version="1.1" xmlns="http://www.w3.org/2000/svg" xmlns:xlink="http://www.w3.org/1999/xlink" xml:space="preserve" xmlns:serif="http://www.serif.com/" style="fill-rule:evenodd;clip-rule:evenodd;stroke-linecap:round;stroke-linejoin:round;stroke-miterlimit:1.5;">
    <g transform="matrix(1,0,0,1,0,15.7575)">
        <g transform="matrix(1.08551,0,0,1,-175.132,0)">
            <clipPath id="_clip1">
                <rect x="1104.67" y="0" width="943.332" height="2048"/>
            </clipPath>
            <g clip-path="url(#_clip1)">
                <g transform="matrix(0.921223,0,0,1,161.336,0)">
                    <path d="M1035.75,2051.67C1035.75,2051.67 1258.91,1563.13 1377.26,1347.24C1508.7,1107.47 1684.83,768.755 1684.83,768.755C1684.83,768.755 1975.42,1088.1 2114.18,1289.92C2264.32,1508.31 2611.29,2119.15 2611.29,2119.15L1035.75,2051.67Z" style="fill:white;stroke:white;stroke-width:82.88px;"/>
                    <path d="M1035.75,2051.67C1035.75,2051.67 1258.91,1563.13 1377.26,1347.24C1508.7,1107.47 1684.83,768.755 1684.83,768.755C1684.83,768.755 1975.42,1088.1 2114.18,1289.92C2264.32,1508.31 2611.29,2119.15 2611.29,2119.15L1035.75,2051.67Z" style="fill:white;stroke:white;stroke-width:109.46px;"/>
                    <path d="M1047.07,2147.48C1047.07,2147.48 1082.43,2065.1 1131.3,1953.31C1156.59,1895.47 1185.49,1829.76 1214.99,1763.52C1276.86,1624.57 1341.34,1483.28 1380.49,1407.38C1478.28,1217.81 1696,818.844 1696,818.844C1696,818.844 1989.47,1155.07 2117.68,1337.21C2270.23,1553.93 2611.29,2119.15 2611.29,2119.15L1047.07,2147.48Z"/>
                    <path d="M1047.07,2147.48C1047.07,2147.48 1082.43,2065.1 1131.3,1953.31C1156.59,1895.47 1185.49,1829.76 1214.99,1763.52C1276.86,1624.57 1341.34,1483.28 1380.49,1407.38C1478.28,1217.81 1696,818.844 1696,818.844C1696,818.844 1989.47,1155.07 2117.68,1337.21C2270.23,1553.93 2611.29,2119.15 2611.29,2119.15L1047.07,2147.48ZM1174.21,2062.29C1184.2,2039.3 1195.32,2013.78 1207.24,1986.51C1232.46,1928.83 1261.29,1863.3 1290.7,1797.23C1351.83,1659.97 1415.47,1520.36 1454.15,1445.38C1519.96,1317.8 1640.25,1095.11 1711.5,963.817C1806.54,1075.16 1964.98,1264.27 2049.91,1384.92C2156.83,1536.81 2356.91,1861.02 2465.53,2038.89C2162.35,2044.38 1463.23,2057.05 1174.21,2062.29L1174.21,2062.29Z"/>
                    <path d="M1277.93,2150.66C1218.62,2081.62 1282.25,1844.65 1350.02,1757.79C1390.52,1705.88 1428.48,1791.38 1454.51,1791.13C1498.05,1790.71 1504.75,1661.87 1542.89,1578.6C1593.48,1468.14 1683.9,1311.1 1726.57,1314.67C1781.79,1319.29 1833.22,1525.05 1863.73,1523C1901.82,1520.43 1935.83,1391.94 1975.5,1398.98C2031.34,1408.89 2068.47,1676.24 2101.62,1794.92C2138.8,1928.04 2112.5,2218.21 2104.97,2221.98C2097.44,2225.75 1371.68,2259.75 1277.93,2150.66Z" style="fill:white;"/>
                    <path d="M1277.93,2150.66C1218.62,2081.62 1282.25,1844.65 1350.02,1757.79C1390.52,1705.88 1428.48,1791.38 1454.51,1791.13C1498.05,1790.71 1504.75,1661.87 1542.89,1578.6C1593.48,1468.14 1683.9,1311.1 1726.57,1314.67C1781.79,1319.29 1833.22,1525.05 1863.73,1523C1901.82,1520.43 1935.83,1391.94 1975.5,1398.98C2031.34,1408.89 2068.47,1676.24 2101.62,1794.92C2138.8,1928.04 2112.5,2218.21 2104.97,2221.98C2097.44,2225.75 1371.68,2259.75 1277.93,2150.66ZM1716.24,1427.77C1730.85,1456.44 1749.08,1492.51 1759.64,1514.34C1778.15,1552.62 1800.08,1578.22 1814.77,1587.77C1833.33,1599.83 1851.89,1603.35 1869.06,1602.19C1896.02,1600.37 1927.65,1585.17 1953.62,1551.24C1955.85,1548.32 1958.33,1544.87 1960.96,1541.04C1962.52,1546.26 1963.98,1551.44 1965.29,1556.49C1987.96,1643.81 2007.17,1751.83 2025.17,1816.28C2047.47,1896.08 2039.66,2062.34 2033.76,2146.73C1920.51,2151.34 1683.08,2155.65 1505.21,2136C1457.26,2130.7 1413.92,2123.74 1379.41,2114.18C1362.95,2109.62 1341.36,2099.55 1337.23,2097.59C1335.08,2093.78 1335.67,2088.1 1334.95,2082.12C1332.67,2063.25 1333.8,2041.2 1336.86,2017.9C1344.57,1959.19 1364.53,1892.97 1388.75,1845.29C1394.01,1849.56 1399.16,1853.19 1404.05,1856.11C1421.73,1866.63 1439.27,1870.65 1455.27,1870.49C1493.96,1870.12 1533.57,1848.04 1558.08,1793.12C1577.31,1750.02 1588.46,1669.7 1615.05,1611.65C1642.22,1552.33 1681.01,1477.13 1716.24,1427.77Z" style="fill:white;"/>
                </g>
            </g>
        </g>
        <g transform="matrix(-1.08551,0,0,1,2223.13,0)">
            <clipPath id="_clip2">
                <rect x="1104.67" y="0" width="943.332" height="2048"/>
            </clipPath>
            <g clip-path="url(#_clip2)">
                <g transform="matrix(0.921223,0,0,1,161.336,0)">
                    <path d="M1035.75,2051.67C1035.75,2051.67 1258.91,1563.13 1377.26,1347.24C1508.7,1107.47 1684.83,768.755 1684.83,768.755C1684.83,768.755 1975.42,1088.1 2114.18,1289.92C2264.32,1508.31 2611.29,2119.15 2611.29,2119.15L1035.75,2051.67Z" style="fill:white;stroke:white;stroke-width:82.88px;"/>
                    <path d="M1035.75,2051.67C1035.75,2051.67 1258.91,1563.13 1377.26,1347.24C1508.7,1107.47 1684.83,768.755 1684.83,768.755C1684.83,768.755 1975.42,1088.1 2114.18,1289.92C2264.32,1508.31 2611.29,2119.15 2611.29,2119.15L1035.75,2051.67Z" style="fill:white;stroke:white;stroke-width:109.46px;"/>
                    <path d="M1047.07,2147.48C1047.07,2147.48 1082.43,2065.1 1131.3,1953.31C1156.59,1895.47 1185.49,1829.76 1214.99,1763.52C1276.86,1624.57 1341.34,1483.28 1380.49,1407.38C1478.28,1217.81 1696,818.844 1696,818.844C1696,818.844 1989.47,1155.07 2117.68,1337.21C2270.23,1553.93 2611.29,2119.15 2611.29,2119.15L1047.07,2147.48Z"/>
                    <path d="M1047.07,2147.48C1047.07,2147.48 1082.43,2065.1 1131.3,1953.31C1156.59,1895.47 1185.49,1829.76 1214.99,1763.52C1276.86,1624.57 1341.34,1483.28 1380.49,1407.38C1478.28,1217.81 1696,818.844 1696,818.844C1696,818.844 1989.47,1155.07 2117.68,1337.21C2270.23,1553.93 2611.29,2119.15 2611.29,2119.15L1047.07,2147.48ZM1174.21,2062.29L2465.53,2038.89C2356.91,1861.02 2156.83,1536.81 2049.91,1384.92C1964.98,1264.27 1806.54,1075.16 1711.5,963.817C1640.25,1095.11 1519.96,1317.8 1454.15,1445.38C1415.47,1520.36 1351.83,1659.97 1290.7,1797.23C1261.29,1863.3 1232.46,1928.83 1207.24,1986.51C1195.32,2013.78 1184.2,2039.3 1174.21,2062.29L1174.21,2062.29Z"/>
                    <path d="M1277.93,2150.66C1218.62,2081.62 1282.25,1844.65 1350.02,1757.79C1390.52,1705.88 1428.48,1791.38 1454.51,1791.13C1498.05,1790.71 1504.75,1661.87 1542.89,1578.6C1593.48,1468.14 1683.9,1311.1 1726.57,1314.67C1781.79,1319.29 1833.22,1525.05 1863.73,1523C1901.82,1520.43 1935.83,1391.94 1975.5,1398.98C2031.34,1408.89 2068.47,1676.24 2101.62,1794.92C2138.8,1928.04 2112.5,2218.21 2104.97,2221.98C2097.44,2225.75 1371.68,2259.75 1277.93,2150.66Z" style="fill:white;"/>
                    <path d="M1277.93,2150.66C1218.62,2081.62 1282.25,1844.65 1350.02,1757.79C1390.52,1705.88 1428.48,1791.38 1454.51,1791.13C1498.05,1790.71 1504.75,1661.87 1542.89,1578.6C1593.48,1468.14 1683.9,1311.1 1726.57,1314.67C1781.79,1319.29 1833.22,1525.05 1863.73,1523C1901.82,1520.43 1935.83,1391.94 1975.5,1398.98C2031.34,1408.89 2068.47,1676.24 2101.62,1794.92C2138.8,1928.04 2112.5,2218.21 2104.97,2221.98C2097.44,2225.75 1371.68,2259.75 1277.93,2150.66ZM1716.24,1427.77C1681.01,1477.13 1642.22,1552.33 1615.05,1611.65C1588.46,1669.7 1577.31,1750.02 1558.08,1793.12C1533.57,1848.04 1493.96,1870.12 1455.27,1870.49C1439.27,1870.65 1421.73,1866.63 1404.05,1856.11C1399.16,1853.19 1394.01,1849.56 1388.75,1845.29C1364.53,1892.97 1344.57,1959.19 1336.86,2017.9C1333.8,2041.2 1332.67,2063.25 1334.95,2082.12C1335.67,2088.1 1335.08,2093.77 1337.22,2097.58C1341.33,2099.53 1362.93,2109.62 1379.41,2114.18C1413.92,2123.74 1457.26,2130.7 1505.21,2136C1683.08,2155.65 1920.51,2151.34 2033.76,2146.73C2039.66,2062.34 2047.47,1896.08 2025.17,1816.28C2007.17,1751.83 1987.96,1643.81 1965.29,1556.49C1963.98,1551.44 1962.52,1546.26 1960.96,1541.04C1958.33,1544.87 1955.85,1548.32 1953.62,1551.24C1927.65,1585.17 1896.02,1600.37 1869.06,1602.19C1851.89,1603.35 1833.33,1599.83 1814.77,1587.77C1800.08,1578.22 1778.15,1552.62 1759.64,1514.34C1749.08,1492.51 1730.85,1456.44 1716.24,1427.77Z" style="fill:white;"/>
                </g>
            </g>
        </g>
        <g id="Layer2">
            <path d="M1208.33,1216.78C1208.33,1216.78 876.203,1242.8 789.516,1052.41C711.848,881.832 796.917,659.972 899.806,420.857C990.113,210.982 1016.66,48.773 856.754,22.214C727.684,0.777 635.478,293.052 589.374,482.512C553.711,629.067 494.355,888.048 570.444,1117.12C632.17,1302.95 901.876,1392.35 1155.09,1381.87L1208.33,1216.78Z" style="fill:white;stroke:white;stroke-width:49.75px;stroke-linejoin:miter;"/>
            <path d="M1208.33,1216.78C1208.33,1216.78 876.203,1242.8 789.516,1052.41C711.848,881.832 796.917,659.972 899.806,420.857C990.113,210.982 1016.66,48.773 856.754,22.214C727.684,0.777 635.478,293.052 589.374,482.512C553.711,629.067 494.355,888.048 570.444,1117.12C632.17,1302.95 901.876,1392.35 1155.09,1381.87L1208.33,1216.78Z" style="fill:white;stroke:white;stroke-width:72.96px;stroke-linejoin:miter;"/>
            <path d="M1208.33,1255.96C1208.33,1255.96 919.853,1290.48 764.201,1111.71C661.597,993.87 745.118,652.672 843.065,435.613C920.151,264.786 960.462,87.353 856.754,60.283C745.127,31.146 644.985,424.872 624.196,532.71C598.899,663.937 538.82,887.927 615.166,1103.09C670.607,1259.33 912.691,1337.21 1147.23,1337.21L1208.33,1255.96Z" style="stroke:black;stroke-width:49.75px;stroke-linejoin:miter;"/>
            <g transform="matrix(0.526174,-0.850377,0.850377,0.526174,-241.612,1263.32)">
                <path d="M1057.53,370.625C1057.53,370.625 1219.08,315.668 1315.57,284.974C1412.07,254.281 1533.31,245.178 1585.78,273.045C1629.95,296.505 1596.43,360.935 1562.34,395.994C1528.24,431.053 1394.49,484.544 1381.2,483.4C1367.9,482.256 1239.26,492.39 1239.26,492.39L1111.28,509.997C1111.28,509.997 1061.53,487.261 1079.17,436.36C1095.62,388.934 1057.53,370.625 1057.53,370.625Z" style="fill:white;"/>
            </g>
            <path d="M1208.33,1255.96C1208.33,1255.96 919.853,1290.48 764.201,1111.71C661.597,993.87 745.118,652.672 843.065,435.613C920.151,264.786 960.462,87.353 856.754,60.283C745.127,31.146 644.985,424.872 624.196,532.71C598.899,663.937 538.82,887.927 615.166,1103.09C670.607,1259.33 912.691,1337.21 1147.23,1337.21L1208.33,1255.96Z" style="fill:none;stroke:black;stroke-width:49.75px;stroke-linejoin:miter;"/>
            <path d="M1208.33,1255.96C1208.33,1255.96 919.853,1290.48 764.201,1111.71C661.597,993.87 745.118,652.672 843.065,435.613C920.151,264.786 960.462,87.353 856.754,60.283C745.127,31.146 644.985,424.872 624.196,532.71C598.899,663.937 538.82,887.927 615.166,1103.09C670.607,1259.33 912.691,1337.21 1147.23,1337.21L1208.33,1255.96Z" style="fill:none;stroke:black;stroke-width:55.07px;stroke-linejoin:miter;"/>
            <path d="M928.541,1720.88C928.541,1720.88 1096.7,1653.15 1222.47,1527.88C1306.14,1444.55 1371.05,1335.74 1355.18,1204.47C1327.74,977.41 1059.92,901.136 1142.81,710.925C1218.85,536.435 1367.4,536.439 1490.44,522.912C1602.26,510.618 1692.87,485.294 1691.27,343.093C1689.79,211.002 1490.11,183.466 1338.45,212.896C1186.17,242.448 961.725,427.7 924.695,600.734C894.078,743.801 848.234,919.174 1131.57,1161.48C1225.68,1241.97 1128.7,1436.09 856.754,1588.27L928.541,1720.88Z" style="fill:white;stroke:white;stroke-width:49.75px;stroke-linejoin:miter;"/>
            <path d="M928.541,1720.88C928.541,1720.88 1096.7,1653.15 1222.47,1527.88C1306.14,1444.55 1371.05,1335.74 1355.18,1204.47C1327.74,977.41 1059.92,901.136 1142.81,710.925C1218.85,536.435 1367.4,536.439 1490.44,522.912C1602.26,510.618 1692.87,485.294 1691.27,343.093C1689.79,211.002 1490.11,183.466 1338.45,212.896C1186.17,242.448 961.725,427.7 924.695,600.734C894.078,743.801 848.234,919.174 1131.57,1161.48C1225.68,1241.97 1128.7,1436.09 856.754,1588.27L928.541,1720.88Z" style="fill:white;stroke:white;stroke-width:72.96px;stroke-linejoin:miter;"/>
            <path d="M910.345,1690C910.345,1690 1355.85,1482.67 1309.29,1202.91C1273.99,990.819 1036.71,935.459 1098.7,708.133C1198.89,340.707 1691.12,614.069 1642.53,340.748C1619.41,210.688 1408.53,236.976 1324.24,260.286C1194.05,296.292 990.643,458.714 960.62,620.146C931.195,778.367 906.765,909.044 1158.55,1136.28C1281.63,1247.36 1147.31,1470.66 875.36,1622.84L910.345,1690Z" style="fill:rgb(1,0,0);"/>
            <path d="M1050.51,478.755C1078.03,438.891 1212.53,308.025 1309.03,277.331C1405.52,246.637 1533.31,245.178 1585.78,273.045C1629.95,296.505 1657.93,409.473 1623.83,444.533C1589.74,479.592 1394.49,484.544 1381.2,483.4C1367.9,482.256 1214.88,550.168 1163.17,572.623C1113.95,593.998 1089.76,567.984 1084.31,531.327C1077.65,486.598 1040.73,492.933 1050.51,478.755Z" style="fill:white;"/>
            <path d="M926.158,1683.05C926.158,1683.05 1355.85,1482.67 1309.29,1202.91C1273.99,990.819 1036.71,935.459 1098.7,708.133C1198.89,340.707 1691.12,614.069 1642.53,340.748C1619.41,210.688 1408.53,236.976 1324.24,260.286C1194.05,296.292 990.643,458.714 960.62,620.146C931.195,778.367 917.684,897.5 1158.55,1136.28C1265.23,1242.03 1161.06,1460.36 889.11,1612.54L926.158,1683.05Z" style="fill:none;stroke:black;stroke-width:49.75px;stroke-linejoin:miter;"/>
            <path d="M926.158,1683.05C926.158,1683.05 1355.85,1482.67 1309.29,1202.91C1273.99,990.819 1036.71,935.459 1098.7,708.133C1198.89,340.707 1691.12,614.069 1642.53,340.748C1619.41,210.688 1408.53,236.976 1324.24,260.286C1194.05,296.292 990.643,458.714 960.62,620.146C931.195,778.367 917.684,897.5 1158.55,1136.28C1265.23,1242.03 1161.06,1460.36 889.11,1612.54L926.158,1683.05Z" style="fill:none;stroke:black;stroke-width:55.07px;stroke-linejoin:miter;"/>
        </g>
    </g>
</svg>
