<?xml version="1.0" standalone="no"?>
<!DOCTYPE svg PUBLIC "-//W3C//DTD SVG 20010904//EN"
 "http://www.w3.org/TR/2001/REC-SVG-20010904/DTD/svg10.dtd">
<svg version="1.0" xmlns="http://www.w3.org/2000/svg"
 width="700.000000pt" height="700.000000pt" viewBox="0 0 700.000000 700.000000"
 preserveAspectRatio="xMidYMid meet">
<metadata>
Created by potrace 1.14, written by Peter Selinger 2001-2017
</metadata>
<g transform="translate(0.000000,700.000000) scale(0.100000,-0.100000)"
fill="#000000" stroke="none">
<path d="M2783 6984 c-344 -91 -632 -624 -883 -1634 -40 -163 -87 -368 -104
-457 -22 -111 -64 -386 -72 -468 -18 -189 -22 -262 -23 -424 -1 -81 -5 -141
-10 -135 -4 5 -48 86 -96 179 -147 285 -187 359 -211 391 -45 61 -138 84 -212
53 -49 -21 -40 -13 -157 -144 -50 -55 -104 -116 -122 -135 -17 -19 -40 -44
-50 -56 -76 -88 -131 -151 -148 -170 -11 -12 -40 -46 -65 -75 -52 -62 -172
-203 -204 -239 -12 -14 -55 -65 -96 -115 -41 -49 -83 -99 -92 -110 -9 -11 -67
-81 -127 -155 l-111 -135 0 -1577 0 -1578 3500 0 3500 0 0 1577 0 1576 -86
106 c-47 58 -93 115 -102 126 -36 43 -268 322 -288 345 -37 43 -158 184 -181
210 -12 14 -31 36 -43 50 -95 110 -297 338 -319 361 -9 8 -32 34 -51 57 -55
68 -99 93 -161 94 -65 2 -121 -23 -153 -66 -13 -17 -52 -85 -86 -151 -122
-233 -173 -331 -220 -420 -26 -49 -69 -130 -95 -180 -52 -98 -107 -201 -165
-310 -21 -38 -61 -115 -90 -170 -114 -216 -191 -358 -199 -367 -4 -4 -8 5 -9
20 -11 142 -88 349 -193 513 -42 67 -184 256 -209 279 -3 3 -25 30 -50 60 -25
30 -55 66 -68 80 -13 14 -57 70 -98 125 -178 236 -199 378 -89 600 91 182 206
301 370 380 83 40 245 88 340 100 22 3 54 7 70 9 17 2 59 7 95 11 94 9 235 26
343 41 185 25 364 105 467 208 70 69 137 196 156 290 20 105 23 239 7 320 -47
231 -248 397 -566 467 -129 28 -184 33 -362 34 -243 0 -405 -22 -565 -75 -218
-73 -481 -228 -694 -409 -305 -258 -534 -565 -629 -842 -27 -78 -81 -315 -92
-404 -3 -27 -8 -57 -10 -65 -6 -21 -18 -175 -18 -235 0 -69 12 -212 23 -260 5
-22 11 -51 14 -65 19 -93 88 -277 144 -380 24 -45 170 -270 181 -280 3 -3 28
-32 56 -65 85 -102 274 -296 345 -353 l25 -21 -45 5 c-386 38 -695 181 -840
389 -41 60 -99 202 -102 252 0 5 -4 18 -9 31 -30 79 -32 410 -4 552 3 14 8 41
11 60 21 115 68 291 121 450 31 95 111 316 129 355 7 17 34 82 59 145 26 63
53 130 61 148 25 58 41 96 79 187 21 50 43 104 50 120 22 53 93 257 119 345
146 491 67 829 -226 968 -134 64 -263 84 -365 56z m-116 -4678 c194 -80 500
-159 693 -181 30 -3 64 -7 75 -10 11 -2 36 -4 55 -5 l35 -1 -56 -52 c-102 -95
-198 -172 -324 -258 -96 -66 -274 -173 -279 -168 -1 2 -69 137 -150 299 -81
162 -168 333 -193 378 l-46 84 42 -21 c22 -12 89 -41 148 -65z m1323 -973
c-36 -73 -184 -388 -347 -733 -19 -41 -57 -121 -84 -178 -27 -57 -49 -107 -49
-112 0 -28 -19 0 -55 78 -21 48 -63 137 -91 197 -103 219 -137 291 -150 323
l-15 33 53 21 c69 29 273 133 368 188 102 59 316 202 365 244 22 19 42 32 44
30 2 -2 -16 -43 -39 -91z"/>
</g>
</svg>
